<svg width="47" height="36" viewBox="0 0 47 36" fill="none" xmlns="http://www.w3.org/2000/svg">
<path d="M31.5976 0.68299C31.2178 0.24896 30.6692 0 30.0925 0H2C0.895432 0 0 0.895431 0 2V14C0 15.1046 0.895432 16 2 16H30.0925C30.6692 16 31.2178 15.751 31.5976 15.317L36.8476 9.31701C37.5074 8.56296 37.5074 7.43704 36.8476 6.68299L31.5976 0.68299Z" fill="#FF0000"/>
<path d="M2.36 10.016V8.552H5.504V10.016H2.36ZM9.46719 7.028C9.98719 7.028 10.4512 7.128 10.8592 7.328C11.2672 7.528 11.5872 7.82 11.8192 8.204C12.0592 8.588 12.1792 9.064 12.1792 9.632C12.1792 10.248 12.0512 10.78 11.7952 11.228C11.5392 11.676 11.1552 12.02 10.6432 12.26C10.1392 12.5 9.51119 12.62 8.75919 12.62C8.31119 12.62 7.88719 12.58 7.48719 12.5C7.09519 12.42 6.75119 12.304 6.45519 12.152V10.592C6.75119 10.744 7.10719 10.876 7.52319 10.988C7.93919 11.092 8.33119 11.144 8.69919 11.144C9.05919 11.144 9.35919 11.096 9.59919 11C9.84719 10.904 10.0352 10.756 10.1632 10.556C10.2912 10.356 10.3552 10.1 10.3552 9.788C10.3552 9.364 10.2152 9.044 9.93519 8.828C9.65519 8.604 9.22319 8.492 8.63919 8.492C8.41519 8.492 8.18319 8.516 7.94319 8.564C7.70319 8.604 7.50319 8.644 7.34319 8.684L6.62319 8.3L6.94719 3.932H11.5912V5.468H8.53119L8.37519 7.148C8.51119 7.124 8.65519 7.1 8.80719 7.076C8.96719 7.044 9.18719 7.028 9.46719 7.028ZM19.1544 8.216C19.1544 8.904 19.0984 9.52 18.9864 10.064C18.8824 10.608 18.7104 11.072 18.4704 11.456C18.2384 11.832 17.9304 12.12 17.5464 12.32C17.1704 12.52 16.7064 12.62 16.1544 12.62C15.4664 12.62 14.9024 12.444 14.4624 12.092C14.0224 11.74 13.6944 11.236 13.4784 10.58C13.2704 9.924 13.1664 9.136 13.1664 8.216C13.1664 7.288 13.2624 6.496 13.4544 5.84C13.6464 5.184 13.9624 4.68 14.4024 4.328C14.8424 3.976 15.4264 3.8 16.1544 3.8C16.8424 3.8 17.4064 3.976 17.8464 4.328C18.2864 4.672 18.6144 5.176 18.8304 5.84C19.0464 6.496 19.1544 7.288 19.1544 8.216ZM14.9664 8.216C14.9664 8.864 15.0024 9.408 15.0744 9.848C15.1464 10.28 15.2664 10.608 15.4344 10.832C15.6104 11.048 15.8504 11.156 16.1544 11.156C16.4584 11.156 16.6944 11.048 16.8624 10.832C17.0384 10.616 17.1624 10.292 17.2344 9.86C17.3144 9.42 17.3544 8.872 17.3544 8.216C17.3544 7.56 17.3144 7.016 17.2344 6.584C17.1624 6.144 17.0384 5.816 16.8624 5.6C16.6944 5.376 16.4584 5.264 16.1544 5.264C15.8504 5.264 15.6104 5.376 15.4344 5.6C15.2664 5.816 15.1464 6.144 15.0744 6.584C15.0024 7.016 14.9664 7.56 14.9664 8.216ZM21.9896 3.812C22.6616 3.812 23.1696 4.048 23.5136 4.52C23.8656 4.984 24.0416 5.64 24.0416 6.488C24.0416 7.336 23.8776 8 23.5496 8.48C23.2216 8.952 22.7016 9.188 21.9896 9.188C21.5496 9.188 21.1776 9.08 20.8736 8.864C20.5776 8.648 20.3536 8.34 20.2016 7.94C20.0496 7.532 19.9736 7.048 19.9736 6.488C19.9736 5.64 20.1336 4.984 20.4536 4.52C20.7736 4.048 21.2856 3.812 21.9896 3.812ZM22.0016 5.036C21.8096 5.036 21.6696 5.156 21.5816 5.396C21.4936 5.636 21.4496 6.004 21.4496 6.5C21.4496 6.988 21.4936 7.356 21.5816 7.604C21.6696 7.852 21.8096 7.976 22.0016 7.976C22.1936 7.976 22.3336 7.852 22.4216 7.604C22.5176 7.356 22.5656 6.988 22.5656 6.5C22.5656 6.004 22.5176 5.636 22.4216 5.396C22.3336 5.156 22.1936 5.036 22.0016 5.036ZM28.0736 3.932L23.3216 12.5H21.9176L26.6696 3.932H28.0736ZM27.9896 7.232C28.4376 7.232 28.8136 7.34 29.1176 7.556C29.4216 7.764 29.6496 8.068 29.8016 8.468C29.9616 8.86 30.0416 9.34 30.0416 9.908C30.0416 10.756 29.8776 11.42 29.5496 11.9C29.2216 12.372 28.7016 12.608 27.9896 12.608C27.5496 12.608 27.1776 12.5 26.8736 12.284C26.5776 12.068 26.3536 11.76 26.2016 11.36C26.0496 10.952 25.9736 10.468 25.9736 9.908C25.9736 9.06 26.1336 8.404 26.4536 7.94C26.7736 7.468 27.2856 7.232 27.9896 7.232ZM28.0016 8.456C27.8096 8.456 27.6696 8.576 27.5816 8.816C27.4936 9.056 27.4496 9.424 27.4496 9.92C27.4496 10.408 27.4936 10.776 27.5816 11.024C27.6696 11.272 27.8096 11.396 28.0016 11.396C28.1936 11.396 28.3336 11.276 28.4216 11.036C28.5176 10.788 28.5656 10.416 28.5656 9.92C28.5656 9.424 28.5176 9.056 28.4216 8.816C28.3336 8.576 28.1936 8.456 28.0016 8.456Z" fill="white"/>
<path d="M0.768 32.568V24.864H3.312C4.312 24.864 5.036 25.024 5.484 25.344C5.932 25.664 6.156 26.14 6.156 26.772C6.156 27.22 6.02 27.6 5.748 27.912C5.484 28.216 5.132 28.404 4.692 28.476V28.536C5.004 28.584 5.28 28.68 5.52 28.824C5.768 28.96 5.96 29.156 6.096 29.412C6.24 29.66 6.312 29.972 6.312 30.348C6.312 30.82 6.204 31.224 5.988 31.56C5.772 31.888 5.464 32.14 5.064 32.316C4.664 32.484 4.188 32.568 3.636 32.568H0.768ZM2.16 31.104H3.66C4.06 31.104 4.34 31.016 4.5 30.84C4.66 30.664 4.74 30.44 4.74 30.168C4.74 29.92 4.656 29.708 4.488 29.532C4.328 29.356 4.04 29.268 3.624 29.268H2.16V31.104ZM2.16 27.876H3.564C3.94 27.876 4.204 27.8 4.356 27.648C4.508 27.488 4.584 27.288 4.584 27.048C4.584 26.8 4.496 26.612 4.32 26.484C4.144 26.356 3.868 26.292 3.492 26.292H2.16V27.876ZM2.808 33.708V23.88H3.708V33.708H2.808Z" fill="#CECECE"/>
<path d="M15.132 26.352C15.132 26.744 15.048 27.084 14.88 27.372C14.72 27.66 14.5 27.896 14.22 28.08C13.948 28.264 13.636 28.4 13.284 28.488V28.524C13.972 28.604 14.492 28.812 14.844 29.148C15.204 29.484 15.384 29.936 15.384 30.504C15.384 31 15.26 31.448 15.012 31.848C14.772 32.24 14.396 32.552 13.884 32.784C13.38 33.008 12.728 33.12 11.928 33.12C11.456 33.12 11.016 33.08 10.608 33C10.2 32.92 9.816 32.804 9.456 32.652V31.116C9.824 31.3 10.208 31.44 10.608 31.536C11.016 31.632 11.392 31.68 11.736 31.68C12.384 31.68 12.836 31.568 13.092 31.344C13.356 31.12 13.488 30.804 13.488 30.396C13.488 30.156 13.428 29.956 13.308 29.796C13.188 29.628 12.976 29.504 12.672 29.424C12.376 29.336 11.96 29.292 11.424 29.292H10.776V27.9H11.436C11.964 27.9 12.364 27.852 12.636 27.756C12.916 27.652 13.104 27.516 13.2 27.348C13.304 27.172 13.356 26.972 13.356 26.748C13.356 26.444 13.26 26.208 13.068 26.04C12.884 25.864 12.572 25.776 12.132 25.776C11.86 25.776 11.612 25.812 11.388 25.884C11.164 25.948 10.96 26.028 10.776 26.124C10.6 26.22 10.444 26.312 10.308 26.4L9.468 25.152C9.692 24.992 9.94 24.848 10.212 24.72C10.492 24.592 10.8 24.492 11.136 24.42C11.472 24.348 11.848 24.312 12.264 24.312C13.144 24.312 13.84 24.492 14.352 24.852C14.872 25.204 15.132 25.704 15.132 26.352ZM19.2992 24.324C19.7952 24.324 20.2472 24.4 20.6552 24.552C21.0712 24.704 21.4032 24.932 21.6512 25.236C21.9072 25.54 22.0352 25.924 22.0352 26.388C22.0352 26.732 21.9672 27.036 21.8312 27.3C21.6952 27.556 21.5112 27.78 21.2792 27.972C21.0552 28.164 20.7952 28.332 20.4992 28.476C20.8032 28.636 21.0912 28.824 21.3632 29.04C21.6432 29.248 21.8672 29.496 22.0352 29.784C22.2112 30.064 22.2992 30.396 22.2992 30.78C22.2992 31.252 22.1712 31.664 21.9152 32.016C21.6672 32.368 21.3152 32.64 20.8592 32.832C20.4112 33.024 19.8912 33.12 19.2992 33.12C18.6592 33.12 18.1152 33.028 17.6672 32.844C17.2192 32.66 16.8752 32.396 16.6352 32.052C16.4032 31.708 16.2872 31.3 16.2872 30.828C16.2872 30.436 16.3592 30.096 16.5032 29.808C16.6552 29.52 16.8552 29.272 17.1032 29.064C17.3512 28.848 17.6272 28.668 17.9312 28.524C17.6752 28.364 17.4432 28.184 17.2352 27.984C17.0272 27.776 16.8592 27.544 16.7312 27.288C16.6112 27.024 16.5512 26.72 16.5512 26.376C16.5512 25.92 16.6792 25.54 16.9352 25.236C17.1912 24.932 17.5272 24.704 17.9432 24.552C18.3672 24.4 18.8192 24.324 19.2992 24.324ZM17.9672 30.72C17.9672 31.032 18.0752 31.288 18.2912 31.488C18.5152 31.688 18.8432 31.788 19.2752 31.788C19.5792 31.788 19.8272 31.744 20.0192 31.656C20.2192 31.568 20.3672 31.444 20.4632 31.284C20.5672 31.124 20.6192 30.94 20.6192 30.732C20.6192 30.516 20.5552 30.328 20.4272 30.168C20.2992 30 20.1392 29.852 19.9472 29.724C19.7632 29.588 19.5712 29.464 19.3712 29.352L19.2152 29.268C18.9672 29.38 18.7472 29.508 18.5552 29.652C18.3712 29.796 18.2272 29.956 18.1232 30.132C18.0192 30.3 17.9672 30.496 17.9672 30.72ZM19.2872 25.644C18.9912 25.644 18.7432 25.72 18.5432 25.872C18.3512 26.024 18.2552 26.24 18.2552 26.52C18.2552 26.712 18.3032 26.884 18.3992 27.036C18.4952 27.18 18.6232 27.308 18.7832 27.42C18.9432 27.524 19.1152 27.624 19.2992 27.72C19.4832 27.632 19.6512 27.536 19.8032 27.432C19.9632 27.328 20.0912 27.204 20.1872 27.06C20.2832 26.908 20.3312 26.728 20.3312 26.52C20.3312 26.24 20.2312 26.024 20.0312 25.872C19.8392 25.72 19.5912 25.644 19.2872 25.644ZM25.4224 31.74C25.3504 32.02 25.2584 32.324 25.1464 32.652C25.0344 32.972 24.9144 33.292 24.7864 33.612C24.6584 33.94 24.5264 34.252 24.3904 34.548H23.1064C23.1864 34.228 23.2624 33.892 23.3344 33.54C23.4064 33.196 23.4744 32.856 23.5384 32.52C23.6024 32.184 23.6544 31.88 23.6944 31.608H25.3384L25.4224 31.74ZM32.5883 28.092C32.5883 28.58 32.5523 29.068 32.4803 29.556C32.4083 30.036 32.2803 30.492 32.0963 30.924C31.9203 31.348 31.6683 31.728 31.3403 32.064C31.0203 32.392 30.6083 32.652 30.1043 32.844C29.6083 33.028 29.0043 33.12 28.2923 33.12C28.1243 33.12 27.9283 33.112 27.7043 33.096C27.4803 33.088 27.2923 33.068 27.1403 33.036V31.584C27.3003 31.616 27.4683 31.644 27.6443 31.668C27.8203 31.692 27.9963 31.704 28.1723 31.704C28.7083 31.704 29.1483 31.64 29.4923 31.512C29.8443 31.384 30.1203 31.2 30.3203 30.96C30.5203 30.72 30.6643 30.436 30.7523 30.108C30.8483 29.78 30.9043 29.42 30.9203 29.028H30.8483C30.7363 29.212 30.6003 29.38 30.4403 29.532C30.2883 29.684 30.0923 29.804 29.8523 29.892C29.6203 29.98 29.3203 30.024 28.9523 30.024C28.4643 30.024 28.0403 29.92 27.6803 29.712C27.3203 29.496 27.0403 29.188 26.8403 28.788C26.6403 28.38 26.5403 27.888 26.5403 27.312C26.5403 26.688 26.6563 26.156 26.8883 25.716C27.1283 25.268 27.4683 24.928 27.9083 24.696C28.3483 24.456 28.8643 24.336 29.4563 24.336C29.8963 24.336 30.3043 24.412 30.6803 24.564C31.0643 24.716 31.3963 24.948 31.6763 25.26C31.9643 25.564 32.1883 25.952 32.3483 26.424C32.5083 26.896 32.5883 27.452 32.5883 28.092ZM29.4923 25.788C29.1403 25.788 28.8523 25.908 28.6283 26.148C28.4043 26.388 28.2923 26.768 28.2923 27.288C28.2923 27.704 28.3883 28.032 28.5803 28.272C28.7723 28.512 29.0643 28.632 29.4563 28.632C29.7283 28.632 29.9603 28.572 30.1523 28.452C30.3523 28.332 30.5083 28.184 30.6203 28.008C30.7323 27.824 30.7883 27.636 30.7883 27.444C30.7883 27.244 30.7603 27.048 30.7043 26.856C30.6483 26.656 30.5643 26.476 30.4523 26.316C30.3483 26.156 30.2163 26.028 30.0563 25.932C29.8963 25.836 29.7083 25.788 29.4923 25.788ZM39.4554 28.092C39.4554 28.58 39.4194 29.068 39.3474 29.556C39.2754 30.036 39.1474 30.492 38.9634 30.924C38.7874 31.348 38.5354 31.728 38.2074 32.064C37.8874 32.392 37.4754 32.652 36.9714 32.844C36.4754 33.028 35.8714 33.12 35.1594 33.12C34.9914 33.12 34.7954 33.112 34.5714 33.096C34.3474 33.088 34.1594 33.068 34.0074 33.036V31.584C34.1674 31.616 34.3354 31.644 34.5114 31.668C34.6874 31.692 34.8634 31.704 35.0394 31.704C35.5754 31.704 36.0154 31.64 36.3594 31.512C36.7114 31.384 36.9874 31.2 37.1874 30.96C37.3874 30.72 37.5314 30.436 37.6194 30.108C37.7154 29.78 37.7714 29.42 37.7874 29.028H37.7154C37.6034 29.212 37.4674 29.38 37.3074 29.532C37.1554 29.684 36.9594 29.804 36.7194 29.892C36.4874 29.98 36.1874 30.024 35.8194 30.024C35.3314 30.024 34.9074 29.92 34.5474 29.712C34.1874 29.496 33.9074 29.188 33.7074 28.788C33.5074 28.38 33.4074 27.888 33.4074 27.312C33.4074 26.688 33.5234 26.156 33.7554 25.716C33.9954 25.268 34.3354 24.928 34.7754 24.696C35.2154 24.456 35.7314 24.336 36.3234 24.336C36.7634 24.336 37.1714 24.412 37.5474 24.564C37.9314 24.716 38.2634 24.948 38.5434 25.26C38.8314 25.564 39.0554 25.952 39.2154 26.424C39.3754 26.896 39.4554 27.452 39.4554 28.092ZM36.3594 25.788C36.0074 25.788 35.7194 25.908 35.4954 26.148C35.2714 26.388 35.1594 26.768 35.1594 27.288C35.1594 27.704 35.2554 28.032 35.4474 28.272C35.6394 28.512 35.9314 28.632 36.3234 28.632C36.5954 28.632 36.8274 28.572 37.0194 28.452C37.2194 28.332 37.3754 28.184 37.4874 28.008C37.5994 27.824 37.6554 27.636 37.6554 27.444C37.6554 27.244 37.6274 27.048 37.5714 26.856C37.5154 26.656 37.4314 26.476 37.3194 26.316C37.2154 26.156 37.0834 26.028 36.9234 25.932C36.7634 25.836 36.5754 25.788 36.3594 25.788ZM46.3106 28.716C46.3106 29.404 46.2546 30.02 46.1426 30.564C46.0386 31.108 45.8666 31.572 45.6266 31.956C45.3946 32.332 45.0866 32.62 44.7026 32.82C44.3266 33.02 43.8626 33.12 43.3106 33.12C42.6226 33.12 42.0586 32.944 41.6186 32.592C41.1786 32.24 40.8506 31.736 40.6346 31.08C40.4266 30.424 40.3226 29.636 40.3226 28.716C40.3226 27.788 40.4186 26.996 40.6106 26.34C40.8026 25.684 41.1186 25.18 41.5586 24.828C41.9986 24.476 42.5826 24.3 43.3106 24.3C43.9986 24.3 44.5626 24.476 45.0026 24.828C45.4426 25.172 45.7706 25.676 45.9866 26.34C46.2026 26.996 46.3106 27.788 46.3106 28.716ZM42.1226 28.716C42.1226 29.364 42.1586 29.908 42.2306 30.348C42.3026 30.78 42.4226 31.108 42.5906 31.332C42.7666 31.548 43.0066 31.656 43.3106 31.656C43.6146 31.656 43.8506 31.548 44.0186 31.332C44.1946 31.116 44.3186 30.792 44.3906 30.36C44.4706 29.92 44.5106 29.372 44.5106 28.716C44.5106 28.06 44.4706 27.516 44.3906 27.084C44.3186 26.644 44.1946 26.316 44.0186 26.1C43.8506 25.876 43.6146 25.764 43.3106 25.764C43.0066 25.764 42.7666 25.876 42.5906 26.1C42.4226 26.316 42.3026 26.644 42.2306 27.084C42.1586 27.516 42.1226 28.06 42.1226 28.716Z" fill="#CECECE"/>
<rect x="8" y="30.0105" width="38.3866" height="1" transform="rotate(-7.5 8 30.0105)" fill="#CECECE"/>
</svg>
