<svg width="25" height="22" viewBox="0 0 25 22" fill="none" xmlns="http://www.w3.org/2000/svg">
<path d="M21.2874 1.60434C18.1206 -0.554826 14.2101 0.452787 12.099 2.92384C9.98777 0.452787 6.07728 -0.566822 2.9105 1.60434C1.23114 2.7559 0.175547 4.69915 0.103574 6.75037C-0.0643611 11.4046 4.06205 15.1351 10.3596 20.8569L10.4796 20.9649C11.3912 21.7926 12.7947 21.7926 13.7063 20.9529L13.8383 20.833C20.1359 15.1231 24.2503 11.3926 24.0943 6.73837C24.0224 4.69915 22.9668 2.7559 21.2874 1.60434ZM12.2189 19.0696L12.099 19.1896L11.979 19.0696C6.2692 13.8996 2.50265 10.4809 2.50265 7.01426C2.50265 4.61519 4.30196 2.81588 6.70104 2.81588C8.54833 2.81588 10.3476 4.00342 10.9834 5.64679H13.2265C13.8503 4.00342 15.6496 2.81588 17.4969 2.81588C19.896 2.81588 21.6953 4.61519 21.6953 7.01426C21.6953 10.4809 17.9287 13.8996 12.2189 19.0696Z" fill="white"/>
</svg>
