<svg width="20" height="20" viewBox="0 0 20 20" fill="none" xmlns="http://www.w3.org/2000/svg">
<path d="M15.5365 10.1589C14.1154 10.8336 12.2904 11.1022 11.244 12.3645C10.429 13.3463 10.1255 14.9808 9.56303 16.1331C9.47643 16.3871 9.17379 16.3376 9.01335 16.179C8.36249 14.7581 8.08902 12.9696 6.87025 11.9089C5.84565 11.0179 4.19935 10.7218 2.9824 10.1305C2.86572 10.0333 2.88122 9.83347 2.94321 9.71246C3.03619 9.52912 5.5977 8.6289 6.02705 8.41439C8.14371 7.3565 7.9851 5.55516 8.95319 3.77398C9.16011 3.39171 9.33787 3.24412 9.60314 3.70798C10.1063 4.58619 10.3342 5.89251 10.8666 6.83581C11.8775 8.62432 13.9413 8.82875 15.6396 9.65838C15.7754 9.8353 15.7179 10.0361 15.5375 10.1607L15.5365 10.1589Z" fill="url(#paint0_linear_29_6367)"/>
<path d="M16.8314 4.47418C16.299 4.72628 15.6162 4.82712 15.2252 5.29922C14.9207 5.66683 14.8068 6.27828 14.5962 6.71005C14.5643 6.80539 14.4503 6.78705 14.3902 6.72747C14.1468 6.19577 14.0438 5.52657 13.588 5.12963C13.2042 4.79595 12.588 4.68594 12.1331 4.4641C12.0894 4.42743 12.0948 4.35317 12.1185 4.30734C12.1532 4.23859 13.1122 3.90215 13.2726 3.82148C14.0648 3.42546 14.0055 2.75167 14.3674 2.08522C14.4449 1.94221 14.5114 1.88721 14.6108 2.06047C14.7995 2.38865 14.8843 2.87818 15.0839 3.23111C15.4622 3.90032 16.2343 3.97732 16.8706 4.28717C16.9216 4.35317 16.8997 4.42834 16.8323 4.4751L16.8314 4.47418Z" fill="url(#paint1_linear_29_6367)"/>
<path d="M16.8314 15.4746C16.299 15.7267 15.6162 15.8275 15.2252 16.2996C14.9207 16.6672 14.8068 17.2787 14.5962 17.7105C14.5643 17.8058 14.4503 17.7875 14.3902 17.7279C14.1468 17.1962 14.0438 16.527 13.588 16.1301C13.2042 15.7964 12.588 15.6864 12.1331 15.4645C12.0894 15.4278 12.0948 15.3536 12.1185 15.3078C12.1532 15.239 13.1122 14.9026 13.2726 14.8219C14.0648 14.4259 14.0055 13.7521 14.3674 13.0856C14.4449 12.9426 14.5114 12.8876 14.6108 13.0609C14.7995 13.3891 14.8843 13.8786 15.0839 14.2315C15.4622 14.9007 16.2343 14.9777 16.8706 15.2876C16.9216 15.3536 16.8997 15.4288 16.8323 15.4755L16.8314 15.4746Z" fill="url(#paint2_linear_29_6367)"/>
<defs>
<linearGradient id="paint0_linear_29_6367" x1="6.00098" y1="5.5" x2="17.001" y2="15.5" gradientUnits="userSpaceOnUse">
<stop offset="0.0240385" stop-color="#291ABD"/>
<stop offset="0.817308" stop-color="#857CDE"/>
<stop offset="1" stop-color="#DEDBFF"/>
</linearGradient>
<linearGradient id="paint1_linear_29_6367" x1="6.00098" y1="5.5" x2="17.001" y2="15.5" gradientUnits="userSpaceOnUse">
<stop offset="0.0240385" stop-color="#291ABD"/>
<stop offset="0.817308" stop-color="#857CDE"/>
<stop offset="1" stop-color="#DEDBFF"/>
</linearGradient>
<linearGradient id="paint2_linear_29_6367" x1="6.00098" y1="5.5" x2="17.001" y2="15.5" gradientUnits="userSpaceOnUse">
<stop offset="0.0240385" stop-color="#291ABD"/>
<stop offset="0.817308" stop-color="#857CDE"/>
<stop offset="1" stop-color="#DEDBFF"/>
</linearGradient>
</defs>
</svg>
