<svg width="124" height="79" viewBox="0 0 124 79" fill="none" xmlns="http://www.w3.org/2000/svg">
<g clip-path="url(#clip0_0_5972)">
<path d="M48.1972 18.4917C48.4394 18.1993 48.6425 17.9849 48.9042 17.6847C49.8611 16.632 50.8571 15.6184 51.896 14.6554C52.9349 13.6924 54.0246 12.7762 55.169 11.9379C56.3173 11.1036 57.5281 10.3473 58.8248 9.76635C59.149 9.6221 59.4771 9.48954 59.8169 9.37258C60.1449 9.25952 60.4847 9.15036 60.8363 9.07628C61.1839 9.0061 61.5432 8.95932 61.9025 8.98661C61.9611 8.99051 62.0158 9.0022 62.0744 9.01V0.970816C62.0744 0.444488 61.6448 0.0156271 61.1175 0.0156271H61.1058C60.9925 -0.00776531 60.8831 -0.00386658 60.8011 0.0156271H48.9549C48.4277 0.0156271 47.9473 0.444488 47.9473 0.970816V18.7724C47.9473 18.7724 48.1269 18.5814 48.205 18.4878" fill="#FCAF17"/>
<path d="M62.0703 9.15808C62.0117 9.15808 61.957 9.15808 61.8985 9.15808C61.5665 9.18537 61.2423 9.28284 60.9337 9.4037C60.6213 9.52066 60.3244 9.68051 60.0276 9.85206C59.7386 10.0158 59.4535 10.199 59.1761 10.3901C58.0669 11.1581 57.0748 12.0743 56.1492 13.049C54.3057 15.014 52.7238 17.2129 51.3139 19.4936C51.1654 19.7509 50.9545 20.0862 50.8061 20.3552C50.6499 20.632 50.4976 20.9089 50.3452 21.2013C50.0406 21.7783 49.7633 22.367 49.4977 22.9596C49.2438 23.5561 48.9938 24.1526 48.7868 24.7569C48.5681 25.3612 48.3806 25.9733 48.2088 26.5854C48.1307 26.8661 48.0096 27.5172 47.9432 27.7979C47.9627 40.7066 47.9432 55.3191 47.9432 55.3191C47.9119 56.7577 48.7985 57.0579 49.1891 56.9604C56.0047 55.2216 60.1721 51.5841 61.6446 46.0713C61.836 45.3188 62.0742 44.4104 62.0742 43.8997C62.0234 39.6657 62.0742 9.15808 62.0742 9.15808" fill="#262262"/>
<path d="M33.6984 40.7576C33.6984 29.6423 33.6867 2.41358 33.7062 1.31024C33.7062 1.19717 33.7101 1.28295 33.7101 0.978845C33.7101 0.674744 33.5812 0.0119597 32.6243 0.0119597C32.3782 -0.00753391 32.0658 0.0119597 32.0619 0.0119597C31.019 0.0275547 18.837 0.0119597 17.8176 0.0119597C16.7982 0.0119597 16.0053 0.1952 15.4272 0.339453C11.1973 1.46229 8.4086 4.64755 7.07283 9.85626C6.99471 10.1565 7.22906 10.8309 8.33048 10.8114C9.00227 10.7998 12.4667 10.7374 19.7626 10.7959C19.7548 10.8309 19.7626 43.744 19.7626 43.744C19.7626 43.744 19.665 47.7753 19.54 48.8046C18.9151 53.908 17.9347 58.3955 15.5835 62.4696C13.9196 65.3547 11.7363 67.8655 9.32254 70.1307C6.94394 72.3685 4.40519 74.661 1.35089 76.1503C0.823614 76.4076 -0.0239353 76.6961 -0.000500727 77.3121C0.0112165 77.585 0.128389 77.8852 0.354923 78.1269C1.05796 78.8833 2.18672 78.9145 2.9874 78.9691C3.73731 79.0198 4.47159 79.012 5.19025 78.9613C6.79942 78.856 8.33829 78.5636 9.81467 78.1854C12.2284 77.5655 14.525 76.7039 16.6107 75.585C21.9499 72.7272 26.836 68.9298 30.027 63.8732C33.6242 58.181 33.6984 48.1301 33.6984 40.7576Z" fill="#262262"/>
<path d="M123.266 32.3634C122.809 30.9403 122.125 29.6187 121.168 28.5348C119.864 27.0533 118.247 25.911 116.595 24.8505C116.602 24.8349 116.614 24.8193 116.622 24.7998C120.535 15.7041 116.61 8.0119 111.814 4.38608C105.924 -0.0662748 98.7921 0.0350923 91.7422 0.0117C87.6294 -0.00389497 77.326 0.00390249 77.326 0.00390249C76.7519 0.00390249 76.2871 0.553624 76.2871 1.12674V55.9468C76.2871 56.5199 76.7519 56.9839 77.326 56.9839H90.2463C90.2463 56.9839 94.859 56.9917 98.9639 56.9761C106.014 56.9488 112.087 55.7051 117.329 51.6036C120.711 48.9603 122.941 45.0109 123.703 40.808C124.176 38.192 124.137 35.0847 123.269 32.3634M110.701 38.5585C110.681 38.6286 110.662 38.6949 110.642 38.7651C110.029 40.8197 108.205 42.6326 106.147 43.3071C103.745 44.0947 101.143 44.1882 98.6593 44.157C97.3079 44.1414 92.8436 44.1492 90.8946 44.157C90.3205 44.157 89.8518 43.6931 89.8518 43.12V14.4019C89.8518 13.6027 90.5041 12.9087 91.3047 12.9165H93.2147C93.2967 12.9165 102.331 12.3395 104.537 16.285C107.119 20.905 103.971 24.4295 98.6944 26.9013C98.1789 27.143 98.1359 28.0163 98.7062 28.1761C101.651 28.9949 104.834 29.3458 107.482 30.9832C110.213 32.6675 111.572 35.381 110.701 38.5585Z" fill="#262262"/>
</g>
<defs>
<clipPath id="clip0_0_5972">
<rect width="124" height="79" fill="white"/>
</clipPath>
</defs>
</svg>
