<svg width="18" height="13" viewBox="0 0 18 13" fill="none" xmlns="http://www.w3.org/2000/svg">
<rect width="18" height="13" transform="matrix(-1 0 0 1 18 0)" fill="#F4F6F8"/>
<path d="M11.6592 12.4705C11.4772 12.1419 11.3819 11.7753 11.3819 11.4029C11.3819 11.0305 11.4772 10.6638 11.6592 10.3352H6.341C6.52302 10.6638 6.61822 11.0305 6.61822 11.4029C6.61822 11.7753 6.52302 12.1419 6.341 12.4705" fill="#1F157C"/>
<path d="M14.9672 12.387H3.03201C2.86302 12.387 2.70096 12.4516 2.58147 12.5665C2.46198 12.6815 2.39485 12.8374 2.39485 13H15.6064C15.6064 12.8374 15.5393 12.6815 15.4198 12.5665C15.3003 12.4516 15.1383 12.387 14.9693 12.387H14.9672Z" fill="#DEE4F3"/>
<path d="M2.04545 0H15.9545C16.4965 0.00155745 17.0159 0.209407 17.3991 0.578152C17.7824 0.946897 17.9984 1.44657 18 1.96806V8.80705H0V1.96806C0.00161934 1.44657 0.217638 0.946897 0.600883 0.578152C0.984131 0.209407 1.50347 0.00155745 2.04545 0Z" fill="#1F157C"/>
<path d="M15.9545 11.0635H2.04545C1.5047 11.0619 0.986444 10.855 0.603399 10.4878C0.220356 10.1205 0.00350189 9.62258 0 9.10229H18C17.9965 9.62258 17.7796 10.1205 17.3966 10.4878C17.0136 10.855 16.4953 11.0619 15.9545 11.0635Z" fill="#DEE4F3"/>
<path d="M18 9.09545V9.10234H0C0 9.10234 0 9.09742 0 9.09545V8.80713H18V9.09545Z" fill="#DEE4F3"/>
<path d="M8.32604 2.75537V3.10568C8.32604 3.94473 8.32604 4.78411 8.32604 5.62381C8.31998 5.76503 8.32889 5.90648 8.35263 6.04596C8.44672 6.47598 8.72899 6.76823 9.1432 6.94733C9.26642 6.99757 9.39281 7.0403 9.52161 7.07525C9.59831 7.09789 9.64229 7.06935 9.65967 6.99358C9.66511 6.96502 9.66751 6.93601 9.66683 6.90698C9.66683 6.15912 9.66683 5.41225 9.66683 4.66439C9.67 4.45363 9.62533 4.24475 9.53593 4.05232C9.34484 3.62955 9.0596 3.25232 8.70036 2.94726C8.59684 2.85067 8.4671 2.78416 8.32604 2.75537Z" fill="#DEE4F3"/>
<path d="M9.6748 1.96606L9.66356 3.68516C9.46196 3.42807 9.21222 3.20948 8.92719 3.04063C8.73896 2.92957 8.53736 2.84101 8.32685 2.7769V1.96606H9.6748Z" fill="#FDAF17"/>
</svg>
