<svg width="25" height="24" viewBox="0 0 25 24" fill="none" xmlns="http://www.w3.org/2000/svg">
<path d="M12.0986 0C5.47463 0 0.0986328 5.376 0.0986328 12C0.0986328 18.624 5.47463 24 12.0986 24C18.7226 24 24.0986 18.624 24.0986 12C24.0986 5.376 18.7226 0 12.0986 0ZM12.0986 3.6C14.0906 3.6 15.6986 5.208 15.6986 7.2C15.6986 9.192 14.0906 10.8 12.0986 10.8C10.1066 10.8 8.49863 9.192 8.49863 7.2C8.49863 5.208 10.1066 3.6 12.0986 3.6ZM12.0986 20.64C9.09863 20.64 6.44663 19.104 4.89863 16.776C4.93463 14.388 9.69863 13.08 12.0986 13.08C14.4866 13.08 19.2626 14.388 19.2986 16.776C17.7506 19.104 15.0986 20.64 12.0986 20.64Z" fill="white"/>
</svg>
