<svg width="14" height="14" viewBox="0 0 14 14" fill="none" xmlns="http://www.w3.org/2000/svg">
<path d="M10.2566 9.02847H9.60825L9.37845 8.80687C10.3633 7.65786 10.8722 6.09028 10.5931 4.42421C10.2074 2.1426 8.3033 0.320596 6.00528 0.0415496C2.53362 -0.385226 -0.388156 2.53655 0.0386199 6.00821C0.317666 8.30623 2.13967 10.2103 4.42128 10.5961C6.08735 10.8751 7.65493 10.3662 8.80394 9.38138L9.02554 9.61118V10.2596L12.5136 13.7476C12.8501 14.0841 13.4 14.0841 13.7365 13.7476C14.073 13.4111 14.073 12.8612 13.7365 12.5247L10.2566 9.02847ZM5.33228 9.02847C3.28868 9.02847 1.63903 7.37882 1.63903 5.33521C1.63903 3.29161 3.28868 1.64196 5.33228 1.64196C7.37589 1.64196 9.02554 3.29161 9.02554 5.33521C9.02554 7.37882 7.37589 9.02847 5.33228 9.02847Z" fill="#291ABD"/>
</svg>
