<svg width="14" height="14" viewBox="0 0 14 14" fill="none" xmlns="http://www.w3.org/2000/svg">
<path d="M10.2635 9.02847H9.61509L9.38529 8.80687C10.3702 7.65786 10.879 6.09028 10.6 4.42421C10.2142 2.1426 8.31014 0.320596 6.01211 0.0415496C2.54045 -0.385226 -0.38132 2.53655 0.0454559 6.00821C0.324502 8.30623 2.14651 10.2103 4.42812 10.5961C6.09419 10.8751 7.66177 10.3662 8.81078 9.38138L9.03238 9.61118V10.2596L12.5204 13.7476C12.8569 14.0841 13.4068 14.0841 13.7433 13.7476C14.0798 13.4111 14.0798 12.8612 13.7433 12.5247L10.2635 9.02847ZM5.33912 9.02847C3.29552 9.02847 1.64587 7.37882 1.64587 5.33521C1.64587 3.29161 3.29552 1.64196 5.33912 1.64196C7.38272 1.64196 9.03238 3.29161 9.03238 5.33521C9.03238 7.37882 7.38272 9.02847 5.33912 9.02847Z" fill="#A3A3A3"/>
</svg>
