<svg width="25" height="24" viewBox="0 0 25 24" fill="none" xmlns="http://www.w3.org/2000/svg">
<path d="M17.5498 13.1999C18.4497 13.1999 19.2417 12.7079 19.6497 11.9639L23.9457 4.17598C24.3897 3.38398 23.8137 2.39999 22.9017 2.39999H5.14182L4.01382 0H0.0986328V2.39999H2.48983L6.80981 11.5079L5.18982 14.4359C4.31382 16.0439 5.46582 17.9999 7.28981 17.9999H21.6897V15.5999H7.28981L8.6098 13.1999H17.5498ZM6.28181 4.79998H20.8617L17.5498 10.7999H9.1258L6.28181 4.79998ZM7.28981 19.1999C5.96981 19.1999 4.90182 20.2799 4.90182 21.5999C4.90182 22.9199 5.96981 23.9999 7.28981 23.9999C8.6098 23.9999 9.68979 22.9199 9.68979 21.5999C9.68979 20.2799 8.6098 19.1999 7.28981 19.1999ZM19.2897 19.1999C17.9698 19.1999 16.9018 20.2799 16.9018 21.5999C16.9018 22.9199 17.9698 23.9999 19.2897 23.9999C20.6097 23.9999 21.6897 22.9199 21.6897 21.5999C21.6897 20.2799 20.6097 19.1999 19.2897 19.1999Z" fill="white"/>
</svg>
